<svg width="200" height="200" viewBox="0 0 200 200" xmlns="http://www.w3.org/2000/svg">
  <!-- Background circle -->
  <circle cx="100" cy="100" r="95" fill="#2563eb" opacity="0.1"/>
  
  <!-- Data streams/lines in background -->
  <path d="M 40 60 Q 60 65, 80 60 T 120 60" stroke="#3b82f6" stroke-width="2" fill="none" opacity="0.4"/>
  <path d="M 35 80 Q 55 75, 75 80 T 115 80" stroke="#3b82f6" stroke-width="2" fill="none" opacity="0.4"/>
  <path d="M 45 100 Q 65 105, 85 100 T 125 100" stroke="#3b82f6" stroke-width="2" fill="none" opacity="0.4"/>
  
  <!-- Hook shape -->
  <path d="M 140 50 
           L 140 90 
           Q 140 120, 110 120
           Q 80 120, 80 90
           L 80 85" 
        stroke="#2563eb" 
        stroke-width="8" 
        fill="none" 
        stroke-linecap="round"
        stroke-linejoin="round"/>
  
  <!-- Hook eye/loop at top -->
  <circle cx="140" cy="45" r="8" fill="none" stroke="#2563eb" stroke-width="8"/>
  
  <!-- Arrow at bottom of hook -->
  <path d="M 80 85 L 70 75 M 80 85 L 90 75" 
        stroke="#2563eb" 
        stroke-width="6" 
        stroke-linecap="round"/>
  
  <!-- Data dots/nodes -->
  <circle cx="50" cy="140" r="6" fill="#10b981"/>
  <circle cx="80" cy="150" r="6" fill="#10b981"/>
  <circle cx="110" cy="145" r="6" fill="#10b981"/>
  <circle cx="140" cy="155" r="6" fill="#10b981"/>
  
  <!-- Connecting lines between data points -->
  <path d="M 50 140 L 80 150 L 110 145 L 140 155" 
        stroke="#10b981" 
        stroke-width="2" 
        fill="none"
        opacity="0.6"/>
  
  <!-- Binary code effect -->
  <text x="155" y="70" font-family="monospace" font-size="12" fill="#6366f1" opacity="0.5">01</text>
  <text x="155" y="100" font-family="monospace" font-size="12" fill="#6366f1" opacity="0.5">10</text>
  <text x="155" y="130" font-family="monospace" font-size="12" fill="#6366f1" opacity="0.5">11</text>
</svg>
